ply
format ascii 1.0
comment PCL generated
element vertex 40
property float x
property float y
property float z
element camera 1
property float view_px
property float view_py
property float view_pz
property float x_axisx
property float x_axisy
property float x_axisz
property float y_axisx
property float y_axisy
property float y_axisz
property float z_axisx
property float z_axisy
property float z_axisz
property float focal
property float scalex
property float scaley
property float centerx
property float centery
property int viewportx
property int viewporty
property float k1
property float k2
end_header
-0.48541218 0.72274143 1.5824981
-0.50967002 0.70614159 1.5764166
-0.37036201 0.49041471 1.7763525
-0.36276373 0.55640149 1.7115312
-0.33481228 0.44891047 1.7458651
-0.31675321 0.58818197 1.6580982
-0.31214061 0.56307 1.7053576
-0.29159015 0.45157924 1.7032402
-0.2818951 0.47636881 1.7190104
-0.27356192 0.38851574 1.6875991
-0.25905511 0.44584927 1.6914173
-0.25713718 0.41285825 1.6684675
-0.20893237 0.58041829 1.5321983
-0.23981172 0.44164613 1.6766704
-0.210879 0.47615293 1.6583071
-0.21011357 0.57308006 1.5776095
-0.18665883 0.57842559 1.5000916
-0.19123343 0.49478802 1.5784876
-0.25290719 0.70092613 2.0586309
-0.19242154 0.42994818 1.6587881
-0.22437647 0.73052806 2.06142
-0.15768415 0.49037126 1.5731291
-0.16057906 0.46328774 1.6633887
-0.16120322 0.41635239 1.6544752
-0.14330836 0.46091071 1.6735886
-0.17380913 0.68444592 1.9696159
0.033926617 0.72702736 2.0226767
0.044253428 0.64970315 1.9171082
0.077875271 0.70621514 1.9650542
0.15473585 0.80110973 2.1310174
0.23536563 0.33846006 1.9631652
0.26668116 0.94642001 2.1115997
0.28406686 0.90223843 2.2136993
0.27910417 0.94780326 2.1416717
0.31221217 0.33183289 1.9320055
0.33834818 0.38884047 1.8925352
0.33639905 0.17394269 1.8621652
0.39900142 0.38274124 1.8817142
0.4252463 0.26529223 1.8696977
0.44574738 0.24632631 1.8800449
0 0 0 1 0 0 0 1 0 0 0 1 0 0 0 0 0 40 1 0 0
