ply
format ascii 1.0
comment PCL generated
element vertex 29
property float x
property float y
property float z
element camera 1
property float view_px
property float view_py
property float view_pz
property float x_axisx
property float x_axisy
property float x_axisz
property float y_axisx
property float y_axisy
property float y_axisz
property float z_axisx
property float z_axisy
property float z_axisz
property float focal
property float scalex
property float scaley
property float centerx
property float centery
property int viewportx
property int viewporty
property float k1
property float k2
end_header
-0.49516028 0.3670696 2.0716987
-0.49190471 0.36306769 2.0940468
-0.46482646 0.16163 2.1734438
-0.46741015 0.16338438 2.1677105
-0.4942441 0.36270922 2.0910492
-0.49184182 0.3563582 2.0708694
-0.49848369 0.46834877 1.9629567
-0.39873487 0.51921725 1.63822
-0.45615289 0.51348901 1.9390641
-0.36919695 0.52210814 1.7584516
-0.34634441 0.62184829 1.7441611
-0.39006472 0.43184119 1.9813064
-0.3326692 0.53023726 1.749403
-0.2901043 0.37568042 1.6062285
-0.31879616 0.59219038 1.722033
-0.31076133 0.5116443 1.7439584
-0.27926931 0.54725993 1.7244552
-0.25534877 0.56808734 1.7203548
-0.23811083 0.65211302 1.7058628
-0.24338251 0.48854488 1.7274572
-0.21558252 0.60477895 1.720101
-0.21513708 0.49849191 1.719254
-0.20411895 0.3972061 1.7166042
-0.18892643 0.62040353 1.6973953
-0.099443309 0.41616818 1.5815498
0.023052987 0.54757416 1.590174
-0.016339278 0.45405993 1.6120213
0.50904244 0.83177167 1.8975413
0.57802832 0.75398177 1.8756027
0 0 0 1 0 0 0 1 0 0 0 1 0 0 0 0 0 29 1 0 0
